<svg width="696" height="105" viewBox="0 0 696 105" fill="none" xmlns="http://www.w3.org/2000/svg">
<g clip-path="url(#clip0)">
<path fill-rule="evenodd" clip-rule="evenodd" d="M628.9 0C589.23 0 562.41 18.58 562.41 52.24C562.41 85.9 589.23 104.48 628.9 104.48C668.57 104.48 695.39 85.9 695.39 52.24C695.39 18.58 668.57 0 628.9 0ZM628.9 29.89C645.66 29.89 655.72 38.24 655.72 52.24C655.72 66.21 645.66 74.59 628.9 74.59C612.14 74.59 602.08 66.21 602.08 52.24C602.08 38.27 612.14 29.89 628.9 29.89ZM40.51 101.13L47.35 85.76H91.77L98.61 101.13H139.68L91.07 3.35H48.61L0 101.13H40.51ZM69.56 36L81.15 62H58L69.56 36ZM190.72 32H227.59V3.35H114.73V32H151.61V101.14H190.72V32ZM351.38 39.53C351.38 64.11 331.96 75.71 302.49 75.71H272.32V101.13H233.21V3.35H302.49C332 3.35 351.38 15 351.38 39.53ZM312 40.65C312 33.1 306.55 30.17 299.29 30.17H272.29V51.12H299.29C306.54 51.12 312 48.19 312 40.65ZM378.81 85.76H423.23L430.08 101.13H471.14L422.53 3.35H380.07L331.46 101.13H372L378.81 85.76ZM401 36L412.62 62H389.43L401 36ZM559.06 32H522.18V101.14H483.07V32H446.2V3.35H559.06V32Z" fill="url(#paint0_linear)"/>
<path fill-rule="evenodd" clip-rule="evenodd" d="M566.41 52.24C566.41 82.48 589.77 100.48 628.9 100.48C668 100.48 691.39 82.48 691.39 52.24C691.39 22 668.03 4 628.9 4C589.77 4 566.41 22 566.41 52.24ZM598.08 52.24C598.08 36.23 610.18 25.89 628.9 25.89C647.62 25.89 659.72 36.23 659.72 52.24C659.72 68.25 647.62 78.59 628.9 78.59C610.18 78.59 598.08 68.25 598.08 52.24ZM94.37 81.76L101.21 97.13H133.22L88.59 7.35H51.09L6.45999 97.13H37.91L44.75 81.76H94.37ZM69.56 26.22L87.32 66H51.8L69.56 26.22ZM155.61 27.99V97.13H186.72V27.99H223.59V7.35H118.73V27.99H155.61ZM237.21 97.13V7.35H302.49C339.59 7.35 347.38 24.85 347.38 39.53C347.38 54.21 339.59 71.71 302.49 71.71H268.32V97.13H237.21ZM299.28 55.13C309.74 55.13 315.99 49.72 315.99 40.66C315.99 31.6 309.74 26.18 299.28 26.18H268.28V55.12L299.28 55.13ZM425.83 81.76L432.67 97.13H464.69L420.05 7.35H382.55L337.92 97.13H369.37L376.22 81.76H425.83ZM401 26.22L418.78 66H383.26L401 26.22ZM487.07 97.13V27.99H450.2V7.35H555.06V27.99H518.18V97.13H487.07Z" fill="url(#paint1_linear)"/>
<path fill-rule="evenodd" clip-rule="evenodd" d="M568.41 52.24C568.41 81.19 591.02 98.48 628.9 98.48C666.77 98.48 689.39 81.19 689.39 52.24C689.39 23.29 666.8 6 628.9 6C591 6 568.41 23.29 568.41 52.24ZM596.08 52.24C596.08 35 609 23.89 628.9 23.89C648.84 23.89 661.72 35.02 661.72 52.24C661.72 69.46 648.8 80.59 628.9 80.59C609 80.59 596.08 69.48 596.08 52.24ZM95.66 79.76L102.51 95.13H130L87.33 9.35H52.33L9.67999 95.13H36.61L43.46 79.76H95.66ZM90.4 68H48.72L69.56 21.31L90.4 68ZM157.61 25.99V95.13H184.72V25.99H221.59V9.35H120.73V25.99H157.61ZM239.21 95.13V9.35H302.49C337.94 9.35 345.38 25.76 345.38 39.53C345.38 53.3 337.94 69.71 302.49 69.71H266.32V95.13H239.21ZM266.32 57.13H299.32C310.86 57.13 318.03 50.82 318.03 40.66C318.03 30.5 310.86 24.18 299.32 24.18H266.32V57.13ZM427.16 79.76L434 95.13H461.43L418.79 9.35H383.79L341.15 95.13H368.07L374.92 79.76H427.16ZM421.86 68H380.18L401 21.31L421.86 68ZM489.07 95.13V25.99H452.2V9.35H553.06V25.99H516.18V95.13H489.07Z" fill="url(#paint2_linear)"/>
<path d="M87.35 9.35H52.33L49.05 15.94H90.63L87.35 9.35Z" fill="#FF9100"/>
<path d="M69.02 22.52L69.56 21.31L70.1 22.52H93.9L90.63 15.94H49.05L45.78 22.52H69.02Z" fill="#FFEA00"/>
<path d="M97.17 29.1L93.9 22.52H70.1L73.03 29.1H97.17Z" fill="#C6FF00"/>
<path d="M69.02 22.52H45.78L42.51 29.1H66.08L69.02 22.52Z" fill="#C6FF00"/>
<path d="M100.44 35.69L97.17 29.1H73.03L75.97 35.69H100.44Z" fill="#64DD17"/>
<path d="M66.08 29.1H42.51L39.23 35.69H63.15L66.08 29.1Z" fill="#64DD17"/>
<path d="M75.97 35.69L78.91 42.27H103.72L100.44 35.69H75.97Z" fill="#14B795"/>
<path d="M63.15 35.69H39.23L35.96 42.27H60.21L63.15 35.69Z" fill="#14B795"/>
<path d="M78.91 42.27L81.85 48.85H106.99L103.72 42.27H78.91Z" fill="#90CAF9"/>
<path d="M35.96 42.27L32.69 48.85H57.27L60.21 42.27H35.96Z" fill="#90CAF9"/>
<path d="M57.27 48.85H32.69L29.42 55.43H54.33L57.27 48.85Z" fill="#B388FF"/>
<path d="M81.85 48.85L84.79 55.43H110.26L106.99 48.85H81.85Z" fill="#B388FF"/>
<path d="M54.33 55.43H29.42L26.14 62.02H51.4L54.33 55.43Z" fill="#7E57C2"/>
<path d="M87.72 62.02H113.53L110.26 55.43H84.79L87.72 62.02Z" fill="#7E57C2"/>
<path d="M221.59 9.35H120.73V15.93H221.59V9.35Z" fill="#FF9100"/>
<path d="M221.59 15.94H120.73V22.52H221.59V15.94Z" fill="#FFEA00"/>
<path d="M157.61 25.99V29.1H184.72V25.99H221.59V22.52H120.73V25.99H157.61Z" fill="#C6FF00"/>
<path d="M184.72 29.1H157.61V35.68H184.72V29.1Z" fill="#64DD17"/>
<path d="M184.72 35.68H157.61V42.26H184.72V35.68Z" fill="#14B795"/>
<path d="M184.72 42.27H157.61V48.85H184.72V42.27Z" fill="#90CAF9"/>
<path d="M184.72 48.85H157.61V55.43H184.72V48.85Z" fill="#B388FF"/>
<path d="M184.72 55.43H157.61V62.01H184.72V55.43Z" fill="#7E57C2"/>
<path d="M302.49 9.35H239.21V15.94H332.76C326.23 12 316.58 9.35 302.49 9.35Z" fill="#FF9100"/>
<path d="M340.16 22.52C338.133 19.8774 335.622 17.6444 332.76 15.94H239.21V22.52H340.16Z" fill="#FFEA00"/>
<path d="M266.32 29.1V24.17H299.32C305.41 24.17 310.32 25.94 313.51 29.1H343.7C342.86 26.7403 341.666 24.5217 340.16 22.52H239.16V29.1H266.32Z" fill="#C6FF00"/>
<path d="M266.32 29.1H239.21V35.68H266.32V29.1Z" fill="#64DD17"/>
<path d="M317.33 35.68H345.17C344.936 33.4372 344.443 31.2291 343.7 29.1H313.47C315.323 30.9077 316.656 33.1803 317.33 35.68Z" fill="#64DD17"/>
<path d="M266.32 35.68H239.21V42.26H266.32V35.68Z" fill="#14B795"/>
<path d="M345.17 35.68H317.33C317.779 37.3083 318.002 38.9909 317.99 40.68C317.99 41.23 317.99 41.77 317.92 42.3H345.28C345.35 41.38 345.38 40.46 345.38 39.56C345.385 38.2637 345.315 36.9682 345.17 35.68Z" fill="#14B795"/>
<path d="M317.92 42.27C317.754 44.5747 317.099 46.8177 316 48.85H344C344.647 46.7082 345.056 44.5015 345.22 42.27H317.92Z" fill="#90CAF9"/>
<path d="M266.32 42.27H239.21V48.85H266.32V42.27Z" fill="#90CAF9"/>
<path d="M316 48.85C314.327 51.8451 311.671 54.1698 308.48 55.43H340.91C342.269 53.4028 343.321 51.1854 344.03 48.85H316Z" fill="#B388FF"/>
<path d="M266.32 48.85H239.21V55.43H266.32V48.85Z" fill="#B388FF"/>
<path d="M299.28 57.12H266.28V55.43H239.21V62H334.45C337.002 60.2236 339.203 57.9891 340.94 55.41H308.51C305.577 56.5863 302.44 57.1676 299.28 57.12Z" fill="#7E57C2"/>
<path d="M418.81 9.35H383.79L380.52 15.94H422.09L418.81 9.35Z" fill="#FF9100"/>
<path d="M400.49 22.52L401.02 21.31L401.56 22.52H425.36L422.09 15.94H380.52L377.24 22.52H400.49Z" fill="#FFEA00"/>
<path d="M428.63 29.1L425.36 22.52H401.56L404.5 29.1H428.63Z" fill="#C6FF00"/>
<path d="M397.55 29.1L400.49 22.52H377.24L373.97 29.1H397.55Z" fill="#C6FF00"/>
<path d="M431.91 35.69L428.63 29.1H404.5L407.44 35.69H431.91Z" fill="#64DD17"/>
<path d="M394.61 35.69L397.55 29.1H373.97L370.7 35.69H394.61Z" fill="#64DD17"/>
<path d="M370.7 35.69L367.43 42.27H391.67L394.61 35.69H370.7Z" fill="#14B795"/>
<path d="M407.44 35.69L410.37 42.27H435.18L431.91 35.69H407.44Z" fill="#14B795"/>
<path d="M410.37 42.27L413.31 48.85H438.45L435.18 42.27H410.37Z" fill="#90CAF9"/>
<path d="M367.43 42.27L364.15 48.85H388.73L391.67 42.27H367.43Z" fill="#90CAF9"/>
<path d="M413.31 48.85L416.25 55.43H441.73L438.45 48.85H413.31Z" fill="#B388FF"/>
<path d="M388.73 48.85H364.15L360.88 55.43H385.8L388.73 48.85Z" fill="#B388FF"/>
<path d="M385.8 55.43H360.88L357.61 62.02H382.86L385.8 55.43Z" fill="#7E57C2"/>
<path d="M419.19 62.02H445L441.73 55.43H416.25L419.19 62.02Z" fill="#7E57C2"/>
<path d="M553.06 9.35H452.2V15.93H553.06V9.35Z" fill="#FF9100"/>
<path d="M553.06 15.94H452.2V22.52H553.06V15.94Z" fill="#FFEA00"/>
<path d="M489.07 25.99V29.1H516.18V25.99H553.06V22.52H452.2V25.99H489.07Z" fill="#C6FF00"/>
<path d="M516.18 29.1H489.07V35.68H516.18V29.1Z" fill="#64DD17"/>
<path d="M516.18 35.68H489.07V42.26H516.18V35.68Z" fill="#14B795"/>
<path d="M516.18 42.27H489.07V48.85H516.18V42.27Z" fill="#90CAF9"/>
<path d="M516.18 48.85H489.07V55.43H516.18V48.85Z" fill="#B388FF"/>
<path d="M516.18 55.43H489.07V62.01H516.18V55.43Z" fill="#7E57C2"/>
<path d="M628.9 6C611.9 6 598.01 9.49 587.82 15.94H670C659.79 9.49 645.89 6 628.9 6Z" fill="#FF9100"/>
<path d="M579.69 22.52H678.11C675.677 20.0125 672.955 17.8036 670 15.94H587.82C584.858 17.8023 582.129 20.0112 579.69 22.52Z" fill="#FFEA00"/>
<path d="M574.57 29.1H608.43C613.82 25.74 620.77 23.89 628.9 23.89C637.03 23.89 644 25.74 649.37 29.1H683.23C681.763 26.73 680.047 24.5241 678.11 22.52H579.69C577.753 24.5241 576.037 26.73 574.57 29.1Z" fill="#C6FF00"/>
<path d="M601.22 35.68C603.189 33.0539 605.635 30.8218 608.43 29.1H574.57C573.281 31.1854 572.192 33.3887 571.32 35.68H601.22Z" fill="#64DD17"/>
<path d="M571.32 35.68C570.499 37.8198 569.857 40.024 569.4 42.27H597.73C598.56 39.9123 599.736 37.6913 601.22 35.68H571.32Z" fill="#14B795"/>
<path d="M569.4 42.27C568.957 44.4404 568.667 46.6391 568.53 48.85H596.26C596.485 46.6058 596.979 44.3966 597.73 42.27H569.4Z" fill="#90CAF9"/>
<path d="M596.08 52.24C596.079 51.1076 596.139 49.9759 596.26 48.85H568.53C568.46 49.96 568.41 51.09 568.41 52.24C568.41 53.39 568.41 54.38 568.52 55.43H596.24C596.131 54.3702 596.077 53.3054 596.08 52.24Z" fill="#B388FF"/>
<path d="M596.24 55.43H568.52C568.647 57.6435 568.928 59.8454 569.36 62.02H597.66C596.926 59.8876 596.45 57.6753 596.24 55.43Z" fill="#7E57C2"/>
<path d="M656.58 35.68H686.48C685.603 33.3905 684.515 31.1876 683.23 29.1H649.37C652.165 30.8218 654.611 33.0539 656.58 35.68Z" fill="#64DD17"/>
<path d="M660.07 42.27H688.4C687.939 40.0252 687.297 37.8213 686.48 35.68H656.58C658.06 37.6937 659.236 39.9141 660.07 42.27Z" fill="#14B795"/>
<path d="M661.54 48.85H689.27C689.133 46.6391 688.843 44.4404 688.4 42.27H660.07C660.821 44.3966 661.315 46.6058 661.54 48.85Z" fill="#90CAF9"/>
<path d="M689.27 48.85H661.54C661.65 49.95 661.72 51.08 661.72 52.24C661.723 53.3054 661.669 54.3702 661.56 55.43H689.28C689.34 54.43 689.39 53.32 689.39 52.24C689.39 51.16 689.34 50 689.27 48.85Z" fill="#B388FF"/>
<path d="M660.13 62H688.44C688.872 59.8255 689.153 57.6235 689.28 55.41H661.56C661.352 57.6565 660.872 59.8693 660.13 62Z" fill="#7E57C2"/>
</g>
<defs>
<linearGradient id="paint0_linear" x1="347.695" y1="0" x2="347.695" y2="104.48" gradientUnits="userSpaceOnUse">
<stop stop-color="#673AB7"/>
<stop offset="1" stop-color="#4527A0"/>
</linearGradient>
<linearGradient id="paint1_linear" x1="348.925" y1="8" x2="348.925" y2="100" gradientUnits="userSpaceOnUse">
<stop stop-color="white"/>
<stop offset="1" stop-color="#B388FF"/>
</linearGradient>
<linearGradient id="paint2_linear" x1="349.535" y1="66.5" x2="349.535" y2="95" gradientUnits="userSpaceOnUse">
<stop stop-color="#9575CD"/>
<stop offset="1" stop-color="#6D36CF"/>
</linearGradient>
<clipPath id="clip0">
<path d="M0 0H695.39V104.48H0V0Z" fill="white"/>
</clipPath>
</defs>
</svg>
